# xmcd
#
# Track frame offsets: 
#        150
#        35652
#        65384
#        96803
#        117821
#        143501
#        182408
#        203508
#        223384
#        244169
#
# Disc length: 3528 seconds
#
# Revision: 0
# Processed by: cddbd v1.5.2PL0 Copyright (c) Steve Scherf et al.
# Submitted via: ExactAudioCopy v1.0b1
#
DISCID=8a0dc60a
DTITLE=Rossini - Stabat Mater (Fricsay, RISA-SO and Kammerchor u.a.)
DYEAR=1954
DGENRE=Geistliche Musik
TTITLE0=Introduzione - Stabat Mater dolorosa
TTITLE1=Aria - Cujus animam gementem
TTITLE2=Duetto - Ques est homo qui non fleret
TTITLE3=Aria - Pro peccatis suae gentis
TTITLE4=Coro e Recitativo - Eja, Mater, fons amoris
TTITLE5=Quartetto - Sancta Mater, istud agas
TTITLE6=Cavatina - Fac ut portem Christi mortem
TTITLE7=Aria e Coro - Inflammatus et accensus
TTITLE8=Quartetto - Quando corpus morietur
TTITLE9=Finale - In sempiterna saecula
EXTD=
EXTT0=
EXTT1=
EXTT2=
EXTT3=
EXTT4=
EXTT5=
EXTT6=
EXTT7=
EXTT8=
EXTT9=
PLAYORDER=
